<svg xmlns="http://www.w3.org/2000/svg" xmlns:xlink="http://www.w3.org/1999/xlink" width="791" zoomAndPan="magnify" viewBox="0 0 593.25 233.999995" height="312" preserveAspectRatio="xMidYMid meet" version="1.0"><defs><filter x="0%" y="0%" width="100%" height="100%" id="b5b093ee4b"><feColorMatrix values="0 0 0 0 1 0 0 0 0 1 0 0 0 0 1 0 0 0 1 0" color-interpolation-filters="sRGB"/></filter><g/><clipPath id="05ead2c4b4"><path d="M 565.597656 50.707031 L 592.386719 50.707031 L 592.386719 153.070312 L 565.597656 153.070312 Z M 565.597656 50.707031 " clip-rule="nonzero"/></clipPath><mask id="d411096d6b"><g filter="url(#b5b093ee4b)"><rect x="-59.325" width="711.9" fill="#000000" y="-23.399999" height="280.799994" fill-opacity="0.3"/></g></mask><clipPath id="52f61e7d93"><path d="M 0.488281 0.707031 L 100.863281 0.707031 L 100.863281 103.3125 L 0.488281 103.3125 Z M 0.488281 0.707031 " clip-rule="nonzero"/></clipPath><clipPath id="47c3ac98f7"><rect x="0" width="101" y="0" height="104"/></clipPath></defs><g clip-path="url(#05ead2c4b4)"><path fill="#020817" d="M 565.597656 50.707031 L 592.386719 50.707031 L 592.386719 153.050781 L 565.597656 153.050781 Z M 565.597656 50.707031 " fill-opacity="1" fill-rule="nonzero"/></g><g mask="url(#d411096d6b)"><g transform="matrix(1, 0, 0, 1, 452, 50)"><g clip-path="url(#47c3ac98f7)"><g clip-path="url(#52f61e7d93)"><path fill="#020817" d="M 28.761719 27.433594 L 0.511719 103.074219 L 26.671875 103.074219 L 33.082031 84.921875 L 40.402344 63.003906 Z M 62.703125 0.710938 L 38.917969 0.710938 L 50.515625 34.144531 L 50.527344 34.101562 L 67.703125 84.921875 L 74.246094 103.074219 L 100.914062 103.074219 L 62.703125 0.710938 " fill-opacity="1" fill-rule="nonzero"/></g></g></g></g><g fill="#020817" fill-opacity="1"><g transform="translate(29.210521, 152.911866)"><g><path d="M 62.515625 -58.125 L 103.25 -102.53125 L 112.609375 -102.53125 L 112.609375 0 C 108.128906 0 103.671875 0 99.234375 0 C 94.804688 0 90.351562 0 85.875 0 L 85.875 -45.5625 L 64.109375 -22.78125 L 61.1875 -22.78125 L 39.578125 -45.5625 L 39.578125 0 C 35.097656 0 30.640625 0 26.203125 0 C 21.773438 0 17.328125 0 12.859375 0 L 12.859375 -102.53125 L 22.484375 -102.53125 Z M 62.515625 -58.125 "/></g></g></g><g fill="#020817" fill-opacity="1"><g transform="translate(149.694707, 152.911866)"><g><path d="M 76.828125 -102.234375 C 76.828125 -98.429688 76.828125 -94.582031 76.828125 -90.6875 C 76.828125 -86.800781 76.828125 -82.859375 76.828125 -78.859375 C 71.753906 -78.859375 67.316406 -78.859375 63.515625 -78.859375 C 59.722656 -78.859375 55.953125 -78.859375 52.203125 -78.859375 C 48.460938 -78.859375 44.0625 -78.859375 39 -78.859375 L 39 -64.40625 L 73.75 -64.40625 C 73.75 -60.507812 73.75 -56.640625 73.75 -52.796875 C 73.75 -48.953125 73.75 -45.082031 73.75 -41.1875 L 39 -41.1875 C 39 -38.164062 39 -35.191406 39 -32.265625 C 39 -29.347656 39 -26.332031 39 -23.21875 C 44.0625 -23.21875 48.5625 -23.21875 52.5 -23.21875 C 56.445312 -23.21875 60.441406 -23.21875 64.484375 -23.21875 C 68.523438 -23.21875 73.078125 -23.21875 78.140625 -23.21875 C 78.140625 -19.425781 78.140625 -15.582031 78.140625 -11.6875 C 78.140625 -7.789062 78.140625 -3.894531 78.140625 0 C 70.148438 0 62.695312 0 55.78125 0 C 48.875 0 41.988281 0 35.125 0 C 28.257812 0 20.882812 0 13 0 C 13 -17.132812 13 -34.222656 13 -51.265625 C 13 -68.304688 13 -85.296875 13 -102.234375 C 20.882812 -102.234375 28.160156 -102.234375 34.828125 -102.234375 C 41.503906 -102.234375 48.175781 -102.234375 54.84375 -102.234375 C 61.507812 -102.234375 68.835938 -102.234375 76.828125 -102.234375 Z M 76.828125 -102.234375 "/></g></g></g><g fill="#020817" fill-opacity="1"><g transform="translate(232.207999, 152.911866)"><g><path d="M 91.578125 0.140625 L 40.015625 -50.234375 L 40.015625 0 C 35.535156 0 31.03125 0 26.5 0 C 21.976562 0 17.476562 0 13 0 L 13 -102.671875 L 22.484375 -102.671875 L 74.1875 -52.140625 L 74.1875 -102.234375 C 78.664062 -102.234375 83.117188 -102.234375 87.546875 -102.234375 C 91.984375 -102.234375 96.441406 -102.234375 100.921875 -102.234375 L 100.921875 0.140625 Z M 91.578125 0.140625 "/></g></g></g><g fill="#020817" fill-opacity="1"><g transform="translate(341.008839, 152.911866)"><g><path d="M 6.71875 -51.109375 C 6.71875 -59.878906 8.222656 -67.523438 11.234375 -74.046875 C 14.253906 -80.566406 18.269531 -86.015625 23.28125 -90.390625 C 28.300781 -94.773438 33.898438 -98.0625 40.078125 -100.25 C 46.265625 -102.445312 52.625 -103.546875 59.15625 -103.546875 C 66.0625 -103.546875 72.800781 -102.28125 79.375 -99.75 C 85.945312 -97.21875 91.640625 -93.296875 96.453125 -87.984375 C 101.273438 -82.679688 104.515625 -75.796875 106.171875 -67.328125 L 80.46875 -67.328125 C 78.332031 -71.710938 75.535156 -74.851562 72.078125 -76.75 C 68.617188 -78.644531 64.3125 -79.59375 59.15625 -79.59375 C 53.695312 -79.59375 49.066406 -78.300781 45.265625 -75.71875 C 41.472656 -73.144531 38.601562 -69.710938 36.65625 -65.421875 C 34.707031 -61.140625 33.734375 -56.367188 33.734375 -51.109375 C 33.734375 -42.640625 36.046875 -35.847656 40.671875 -30.734375 C 45.296875 -25.628906 51.457031 -23.078125 59.15625 -23.078125 C 64.40625 -23.078125 68.78125 -23.953125 72.28125 -25.703125 C 75.789062 -27.453125 78.71875 -30.765625 81.0625 -35.640625 L 59.296875 -35.640625 L 59.296875 -58.265625 L 107.640625 -58.265625 C 107.929688 -53.203125 107.953125 -48.1875 107.703125 -43.21875 C 107.460938 -38.257812 106.46875 -33.296875 104.71875 -28.328125 C 102.28125 -21.222656 98.675781 -15.503906 93.90625 -11.171875 C 89.132812 -6.835938 83.726562 -3.695312 77.6875 -1.75 C 71.65625 0.195312 65.476562 1.171875 59.15625 1.171875 C 52.625 1.171875 46.265625 0.078125 40.078125 -2.109375 C 33.898438 -4.304688 28.300781 -7.570312 23.28125 -11.90625 C 18.269531 -16.238281 14.253906 -21.664062 11.234375 -28.1875 C 8.222656 -34.707031 6.71875 -42.347656 6.71875 -51.109375 Z M 6.71875 -51.109375 "/></g></g></g></svg>